<svg width="63" height="77" viewBox="0 0 63 77" fill="none" xmlns="http://www.w3.org/2000/svg">
<g clip-path="url(#clip0_164_148)">
<path d="M32.6341 77.0001C14.9764 68.4783 1.65747 55.7486 0.284714 35.6664C-0.234088 28.1252 0.142388 20.8787 0.0184264 13.1534C0.00465285 12.3661 1.36823 11.3441 2.03854 11.2566L9.92616 10.2668C16.9139 9.39202 23.1625 6.03118 28.4699 1.37666C30.2099 -0.14723 32.0831 -0.575392 34.1124 0.976118C38.0057 3.96404 42.1516 6.16009 46.8254 7.95561C51.4762 9.72811 56.2327 10.6673 61.3197 11.3026C61.8568 11.5558 62.8439 13.0475 62.8531 13.6921C63.0414 26.9098 63.9045 40.2519 58.1518 52.3371C52.8857 63.4048 43.9238 71.5629 32.6433 76.9955L32.6341 77.0001ZM56.678 45.9054C58.6889 39.9572 59.4465 33.7788 59.4052 27.4899L59.3271 15.0272C48.896 13.2225 39.6402 10.5568 31.3486 3.81211C25.2836 9.58078 17.8918 12.8449 9.67824 14.0926L3.50771 15.0318C3.48476 32.5035 1.99722 46.0251 14.3475 59.4547C19.4896 65.0438 25.4535 69.307 32.478 72.4975C43.3545 67.0971 52.7526 57.5395 56.6826 45.9054H56.678Z" fill="#162235"/>
<path d="M28.0337 47.3002L18.7136 38.5068C18.2499 38.0694 18.1397 36.6883 18.3509 36.1956C18.5988 35.6248 20.1965 35.0355 20.6648 35.459L29.0483 43.0692L44.3415 26.1085C45.0669 25.3074 46.6509 25.2522 47.4176 25.9566C48.042 26.5321 48.1522 28.1895 47.3625 29.0688L31.523 46.826C30.793 47.6409 29.0345 48.244 28.0245 47.2956L28.0337 47.3002Z" fill="#162235"/>
</g>
<defs>
<clipPath id="clip0_164_148">
<rect width="63" height="77" fill="white"/>
</clipPath>
</defs>
</svg>
